{"title":"The Running Man [1987] DVDRip","uid":5598684,"size":996777150,"categoryP":"video","categoryS":"movies","magnet":"?xt=urn:btih:db3fdd76da31f7e417e35969228f410b9138cad6&amp;dn=The+Running+Man+%5B1987%5D+DVDRip&amp;tr=udp%3A%2F%2Ftracker.openbittorrent.com%3A80&amp;tr=udp%3A%2F%2Fopen.demonii.com%3A1337&amp;tr=udp%3A%2F%2Ftracker.coppersurfer.tk%3A6969&amp;tr=udp%3A%2F%2Fexodus.desync.com%3A6969","seeders":1,"leechers":0,"uploader":"neon","files":1,"time":1275167927,"description":"The Running Man is a science fiction novel by Stephen King, first published under the pseudonym Richard Bachman in 1982 as a paperback original. It was collected in 1985 in the hardcover omnibus The Bachman Books. The novel is set in a dystopian United States during the year 2025, in which the nation's economy is in ruins and world violence is rising.\n\nThe story follows protagonist Ben Richards as he participates in the game show The Running Man in which contestants, allowed to go anywhere in the world, are chased by &quot;Hunters,&quot; employed to kill them.\n\n &lt;a href=&quot;\nhttp://www.imdb.com/title/tt0093894/&quot; rel=&quot;nofollow&quot; target=&quot;_NEW&quot;&gt;\nhttp://www.imdb.com/title/tt0093894/&lt;/a&gt;\nGeneral\nGeneral\nFormat : AVI\nFormat/Info : Audio Video Interleave\nFormat profile : OpenDML\nFile size : 951 MiB\nDuration : 1h 41mn\nOverall bit rate : 1 308 Kbps\nWriting application : AVI-Mux GUI 1.17.7, Aug 8 2006 20:59:17\n\nVideo\nID : 0\nFormat : MPEG-4 Visual\nFormat profile : Simple@L1\nFormat settings, BVOP : No\nFormat settings, QPel : No\nFormat settings, GMC : No warppoints\nFormat settings, Matrix : Default (H.263)\nCodec ID : DX50\nCodec ID/Hint : DivX 5\nDuration : 1h 41mn\nBit rate : 1 176 Kbps\nWidth : 720 pixels\nHeight : 384 pixels\nDisplay aspect ratio : 1.875\nFrame rate : 30.000 fps\nResolution : 8 bits\nColorimetry : 4:2:0\nScan type : Progressive\nBits/(Pixel*Frame) : 0.142\nStream size : 854 MiB (90%)\nWriting library : Lavc51.39.0\n\nAudio\nID : 1\nFormat : MPEG Audio\nFormat version : Version 1\nFormat profile : Layer 3\nCodec ID : 55\nCodec ID/Hint : MP3\nDuration : 1h 41mn\nBit rate mode : Constant\nBit rate : 128 Kbps\nChannel(s) : 2 channels\nSampling rate : 44.1 KHz\nStream size : 93.0 MiB (10%)\nAlignment : Aligned on interleaves\nInterleave, duration : 644 ms (19.31 video frames)\nInterleave, preload duration : 209 ms &lt;a href=&quot;\nhttp://www.traileraddict.com/trailer/the-running-man/trailer&quot; rel=&quot;nofollow&quot; target=&quot;_NEW&quot;&gt;\nhttp://www.traileraddict.com/trailer/the-running-man/trailer&lt;/a&gt;\n \nGenre: Action | Sci-Fi | Thriller\n\nArnold Schwarzenegger... Ben Richards\nMaria Conchita Alonso... Amber Mendez\nYaphet Kotto ... William Laughlin\nJim Brown ... Fireball\nJesse Ventura ... Captain Freedom\nErland van Lidth... Dynamo (as Erland Van Lidth)\nMarvin J. McIntyre... Harold Weiss\nGus Rethwisch ... Buzzsaw (as Bernard Gus Rethwisch)\nProfessor Toru Tanaka... Subzero\nMick Fleetwood ... Mic\nDweezil Zappa ... Stevie\nRichard Dawson ... Damon Killian\nKaren Leigh Hopkins... Brenda\nSven-Ole Thorsen... Sven (as Sven Thorsen)\nEdward Bunker ... Lenny (as Eddie Bunker)","torrent":{"xt":"urn:btih:db3fdd76da31f7e417e35969228f410b9138cad6","amp;dn":"The+Running+Man+%5B1987%5D+DVDRip","amp;tr":["udp%3A%2F%2Ftracker.openbittorrent.com%3A80","udp%3A%2F%2Fopen.demonii.com%3A1337","udp%3A%2F%2Ftracker.coppersurfer.tk%3A6969","udp%3A%2F%2Fexodus.desync.com%3A6969"],"infoHash":"db3fdd76da31f7e417e35969228f410b9138cad6","infoHashBuffer":{"type":"Buffer","data":[219,63,221,118,218,49,247,228,23,227,89,105,34,143,65,11,145,56,202,214]},"announce":[],"urlList":[]}}